<svg xmlns="http://www.w3.org/2000/svg" fill="none" viewBox="0 0 72 72">
  <g fill="#000" clip-path="url(#a)">
    <path d="M42 45a13 13 0 0 0 10-14 13 13 0 0 0-15-12 13 13 0 0 0-11 13c-1 5-2 9-5 13l-3 4c-2 2-1 4 0 6l3 2c2 1 5 1 6-1l3-4c3-3 7-6 12-7ZM27 32c0-3 1-5 3-7 4-5 11-6 16-2a11 11 0 0 1 2 16c-2 2-4 4-7 4-4 2-9 4-12 8l-7-5c3-4 5-9 5-14Zm-8 17h1l6 6v1l-7-7Zm2-1v-1l7 5-1 2-6-6Zm-1 5-1-2 5 5h-2l-2-3Z"/>
    <path d="m31 28 1-1a1 1 0 1 0-1-1l-1 1a1 1 0 0 0 1 1ZM27 41a1 1 0 0 0 2 0l1-9v-1a1 1 0 1 0-1-1v2l-2 8v1ZM44 40h-3a1 1 0 1 0 0 2l2-1 1-1ZM44 26a8 8 0 0 1 1 12 1 1 0 0 0 1 1l1-1c3-4 2-10-2-14a1 1 0 1 0-1 2ZM48 21h1l3-4a1 1 0 0 0-2-1l-2 4v1ZM40 17a1 1 0 1 0 2 0v-5a1 1 0 0 0-1 0l-1 5ZM47 51l-2-5a1 1 0 1 0-2 1l2 4a1 1 0 0 0 1 1l1-1ZM30 14l2 4a1 1 0 0 0 1 1l1-1-2-5a1 1 0 1 0-2 1ZM55 44l-4-3a1 1 0 0 0-1 2l4 3a1 1 0 0 0 1-2ZM27 23v-1l-4-3a1 1 0 0 0-1 1l4 3h1ZM53 35h1l4 1a1 1 0 1 0 1-2h-5a1 1 0 0 0-1 1ZM23 29h-4a1 1 0 0 0-1 1l5 1a1 1 0 0 0 0-2ZM52 27a1 1 0 0 0 1 0l5-1a1 1 0 0 0-1-2l-4 2-1 1Z"/>
  </g>
  <defs>
    <clipPath id="a">
      <path fill="#fff" d="M0 0h51v51H0z" transform="rotate(38 16 45)"/>
    </clipPath>
  </defs>
</svg>
